<svg width="198" height="270" viewBox="0 0 198 270" fill="none" xmlns="http://www.w3.org/2000/svg">
<path d="M91 53L24 175.5H44L96.5 77.5H101L110 95.5H129.5L106 53H91Z" fill="#101D25"/>
<path d="M53 175.5H174L150 132.5H94.5L101 122.5H145.5L136.5 106.5H91L53 175.5Z" fill="#101D25"/>
<path d="M91 53L24 175.5H44L96.5 77.5H101L110 95.5H129.5L106 53H91Z" stroke="white"/>
<path d="M53 175.5H174L150 132.5H94.5L101 122.5H145.5L136.5 106.5H91L53 175.5Z" stroke="white"/>
<path d="M26 87.5C26.7936 105.116 28.7166 114.986 36.5 132.5L41.5 123C24.2409 68.0074 54.1486 34.5403 101 30C142.22 35.7544 174.124 67.2745 156 123L162 132.5C166.856 120.3 168.664 110.824 171.5 90L196.5 72L195 65L165.5 62.5C162.82 55.2905 160.511 51.2435 153 44L162 18.5L156 13.5L132.5 28.5C126.06 24.4345 121.884 22.9816 114 21L109 1H91.5L85 23C76.9933 23.8568 72.9873 25.2945 66 28.5L41.5 12L36.5 15.5L45.5 44C39.1485 50.716 36.201 54.5989 33.5 62.5H3L1 71L26 87.5Z" fill="#FA8C17" stroke="#FA8C17"/>
<path d="M25.6448 202L33.5748 183.8H37.5008L45.3788 202H40.8548L36.6428 192.146C36.4868 191.765 36.3308 191.383 36.1748 191.002C36.0361 190.621 35.8974 190.231 35.7588 189.832C35.6201 189.433 35.4901 189.043 35.3688 188.662C35.2474 188.281 35.1348 187.917 35.0308 187.57L35.9148 187.544C35.8108 187.96 35.6894 188.359 35.5508 188.74C35.4294 189.121 35.2994 189.503 35.1608 189.884C35.0221 190.248 34.8748 190.621 34.7188 191.002C34.5628 191.383 34.4068 191.773 34.2508 192.172L30.0388 202H25.6448ZM29.3628 198.62L30.7928 195.292H40.1528L41.2188 198.62H29.3628ZM49.189 202V198.204H52.985V187.596H49.189V183.8H61.227V187.596H57.405V198.204H61.227V202H49.189ZM67.547 202V183.8H71.499L78.779 194.382L76.075 194.356L83.433 183.8H87.281V202H82.991V196.228C82.991 194.72 83.0257 193.342 83.095 192.094C83.1817 190.829 83.3203 189.563 83.511 188.298L83.979 189.702L78.233 197.58H76.517L70.823 189.702L71.317 188.298C71.5077 189.529 71.6377 190.768 71.707 192.016C71.7937 193.247 71.837 194.651 71.837 196.228V202H67.547ZM93.6232 202V183.8H102.593C103.98 183.8 105.15 183.982 106.103 184.346C107.057 184.693 107.776 185.204 108.261 185.88C108.764 186.539 109.015 187.336 109.015 188.272C109.015 189.295 108.738 190.17 108.183 190.898C107.629 191.609 106.814 192.085 105.739 192.328L105.765 191.86C106.563 192.033 107.273 192.328 107.897 192.744C108.539 193.143 109.041 193.663 109.405 194.304C109.787 194.928 109.977 195.656 109.977 196.488C109.977 197.476 109.787 198.325 109.405 199.036C109.024 199.729 108.504 200.301 107.845 200.752C107.187 201.185 106.441 201.506 105.609 201.714C104.795 201.905 103.928 202 103.009 202H93.6232ZM97.7832 198.308H102.957C103.495 198.308 103.954 198.239 104.335 198.1C104.734 197.944 105.046 197.719 105.271 197.424C105.514 197.112 105.635 196.731 105.635 196.28C105.635 195.812 105.497 195.439 105.219 195.162C104.959 194.885 104.613 194.685 104.179 194.564C103.763 194.425 103.313 194.356 102.827 194.356H97.7832V198.308ZM97.7832 191.054H102.229C102.715 191.054 103.139 190.985 103.503 190.846C103.885 190.69 104.171 190.482 104.361 190.222C104.569 189.945 104.673 189.615 104.673 189.234C104.673 188.662 104.439 188.229 103.971 187.934C103.503 187.639 102.871 187.492 102.073 187.492H97.7832V191.054ZM115.129 202V183.8H129.273V187.57H119.419V198.23H129.533V202H115.129ZM117.313 194.538V190.95H128.103V194.538H117.313ZM135.111 202V183.8H149.255V187.57H139.401V198.23H149.515V202H135.111ZM137.295 194.538V190.95H148.085V194.538H137.295ZM153.898 202V199.062L164.87 186.062L166.664 187.882H154.574V183.8H169.758V186.712L158.812 199.738L157.018 198.1H170.044V202H153.898Z" fill="#FA8C17"/>
<path d="M27.4679 228V209.8H41.6119V213.57H31.7579V224.23H41.8719V228H27.4679ZM29.6519 220.538V216.95H40.4419V220.538H29.6519ZM47.4503 228V209.8H51.5063L62.5043 222.8L61.7503 222.67C61.6463 222.063 61.5683 221.483 61.5163 220.928C61.4643 220.373 61.4123 219.836 61.3603 219.316C61.3257 218.796 61.291 218.276 61.2563 217.756C61.239 217.236 61.2303 216.69 61.2303 216.118C61.2303 215.546 61.2303 214.939 61.2303 214.298V209.8H65.5203V228H61.4123L49.9983 214.584L51.2203 214.766C51.2723 215.373 51.3243 215.919 51.3763 216.404C51.4457 216.889 51.4977 217.349 51.5323 217.782C51.5843 218.198 51.619 218.623 51.6363 219.056C51.671 219.472 51.697 219.914 51.7143 220.382C51.7317 220.85 51.7403 221.361 51.7403 221.916V228H47.4503ZM71.8507 228V209.8H85.9947V213.57H76.1407V224.23H86.2547V228H71.8507ZM74.0347 220.538V216.95H84.8247V220.538H74.0347ZM91.8331 228V209.8H100.959C102.242 209.8 103.368 210.051 104.339 210.554C105.31 211.039 106.064 211.715 106.601 212.582C107.138 213.449 107.407 214.454 107.407 215.598C107.407 216.759 107.121 217.799 106.549 218.718C105.994 219.619 105.223 220.339 104.235 220.876C103.264 221.396 102.172 221.656 100.959 221.656H96.0451V228H91.8331ZM103.221 228L97.9691 219.784L102.545 219.134L108.317 228H103.221ZM96.0451 218.276H100.517C101.002 218.276 101.427 218.172 101.791 217.964C102.172 217.756 102.467 217.47 102.675 217.106C102.9 216.742 103.013 216.317 103.013 215.832C103.013 215.364 102.892 214.957 102.649 214.61C102.424 214.246 102.103 213.969 101.687 213.778C101.288 213.587 100.812 213.492 100.257 213.492H96.0451V218.276ZM122.054 228.26C120.546 228.26 119.168 228.043 117.92 227.61C116.69 227.177 115.624 226.553 114.722 225.738C113.821 224.906 113.119 223.909 112.616 222.748C112.131 221.569 111.888 220.261 111.888 218.822C111.888 217.47 112.14 216.231 112.642 215.104C113.162 213.96 113.899 212.963 114.852 212.114C115.806 211.265 116.924 210.606 118.206 210.138C119.506 209.67 120.919 209.436 122.444 209.436C123.606 209.436 124.68 209.575 125.668 209.852C126.656 210.129 127.54 210.493 128.32 210.944C129.118 211.395 129.776 211.897 130.296 212.452L127.618 215.338C127.15 214.939 126.648 214.601 126.11 214.324C125.59 214.029 125.018 213.795 124.394 213.622C123.788 213.431 123.129 213.336 122.418 213.336C121.569 213.336 120.78 213.475 120.052 213.752C119.342 214.029 118.718 214.419 118.18 214.922C117.643 215.407 117.227 215.988 116.932 216.664C116.638 217.323 116.49 218.042 116.49 218.822C116.49 219.706 116.646 220.495 116.958 221.188C117.27 221.864 117.695 222.436 118.232 222.904C118.787 223.372 119.428 223.736 120.156 223.996C120.884 224.239 121.664 224.36 122.496 224.36C123.172 224.36 123.805 224.273 124.394 224.1C125.001 223.927 125.53 223.693 125.98 223.398C126.431 223.103 126.769 222.748 126.994 222.332C127.237 221.899 127.367 221.439 127.384 220.954V220.356L127.956 221.318H122.054V217.886H131.544C131.579 218.111 131.605 218.38 131.622 218.692C131.64 219.004 131.648 219.299 131.648 219.576C131.666 219.853 131.674 220.053 131.674 220.174C131.674 221.422 131.432 222.549 130.946 223.554C130.478 224.542 129.82 225.383 128.97 226.076C128.121 226.769 127.107 227.307 125.928 227.688C124.75 228.069 123.458 228.26 122.054 228.26ZM136.444 228V224.204H140.24V213.596H136.444V209.8H148.482V213.596H144.66V224.204H148.482V228H136.444ZM152.306 228L160.236 209.8H164.162L172.04 228H167.516L163.304 218.146C163.148 217.765 162.992 217.383 162.836 217.002C162.697 216.621 162.559 216.231 162.42 215.832C162.281 215.433 162.151 215.043 162.03 214.662C161.909 214.281 161.796 213.917 161.692 213.57L162.576 213.544C162.472 213.96 162.351 214.359 162.212 214.74C162.091 215.121 161.961 215.503 161.822 215.884C161.683 216.248 161.536 216.621 161.38 217.002C161.224 217.383 161.068 217.773 160.912 218.172L156.7 228H152.306ZM156.024 224.62L157.454 221.292H166.814L167.88 224.62H156.024Z" fill="black"/>
</svg>
